<svg xmlns="http://www.w3.org/2000/svg" width="800" height="600" viewBox="0 0 800 600">
<defs>
<linearGradient id="bg" x1="0" y1="0" x2="1" y2="1"><stop stop-color="#f8f9fb"/><stop offset="1" stop-color="#e5e9ee"/></linearGradient>
<linearGradient id="black" x1="0" y1="0" x2="1" y2="1"><stop stop-color="#30353d"/><stop offset=".55" stop-color="#0e1116"/><stop offset="1" stop-color="#000"/></linearGradient>
<linearGradient id="metal" x1="0" y1="0" x2="1" y2="0"><stop stop-color="#767d87"/><stop offset=".25" stop-color="#1b1f25"/><stop offset=".55" stop-color="#5a626d"/><stop offset="1" stop-color="#11151a"/></linearGradient>
<radialGradient id="light" cx="50%" cy="50%" r="55%"><stop stop-color="#fffde9"/><stop offset=".45" stop-color="#ffe7a3"/><stop offset="1" stop-color="#d18b27"/></radialGradient>
<filter id="shadow" x="-50%" y="-50%" width="200%" height="200%"><feDropShadow dx="0" dy="18" stdDeviation="18" flood-color="#0b0d10" flood-opacity=".22"/></filter>
<filter id="soft" x="-50%" y="-50%" width="200%" height="200%"><feGaussianBlur stdDeviation="22"/></filter>

</defs>
<rect width="800" height="600" fill="url(#bg)"/><ellipse cx="400" cy="468" rx="215" ry="30" fill="#0b0d10" opacity=".16" filter="url(#soft)"/>
<g filter="url(#shadow)"><rect x="120" y="100" width="560" height="70" rx="12" fill="#101318"/><rect x="150" y="120" width="500" height="12" rx="6" fill="#3e454f"/><rect x="260" y="155" width="280" height="245" rx="35" fill="url(#black)"/><g fill="#0c0f13"><rect x="280" y="205" width="25" height="140" rx="12"/><rect x="320" y="195" width="25" height="160" rx="12"/><rect x="360" y="190" width="25" height="170" rx="12"/><rect x="400" y="190" width="25" height="170" rx="12"/><rect x="440" y="195" width="25" height="160" rx="12"/><rect x="480" y="205" width="25" height="140" rx="12"/></g><rect x="285" y="365" width="230" height="32" rx="12" fill="url(#light)"/></g>
</svg>