<svg xmlns="http://www.w3.org/2000/svg" width="800" height="600" viewBox="0 0 800 600">
<defs>
<linearGradient id="bg" x1="0" y1="0" x2="1" y2="1"><stop stop-color="#f8f9fb"/><stop offset="1" stop-color="#e5e9ee"/></linearGradient>
<linearGradient id="black" x1="0" y1="0" x2="1" y2="1"><stop stop-color="#30353d"/><stop offset=".55" stop-color="#0e1116"/><stop offset="1" stop-color="#000"/></linearGradient>
<linearGradient id="metal" x1="0" y1="0" x2="1" y2="0"><stop stop-color="#767d87"/><stop offset=".25" stop-color="#1b1f25"/><stop offset=".55" stop-color="#5a626d"/><stop offset="1" stop-color="#11151a"/></linearGradient>
<radialGradient id="light" cx="50%" cy="50%" r="55%"><stop stop-color="#fffde9"/><stop offset=".45" stop-color="#ffe7a3"/><stop offset="1" stop-color="#d18b27"/></radialGradient>
<filter id="shadow" x="-50%" y="-50%" width="200%" height="200%"><feDropShadow dx="0" dy="18" stdDeviation="18" flood-color="#0b0d10" flood-opacity=".22"/></filter>
<filter id="soft" x="-50%" y="-50%" width="200%" height="200%"><feGaussianBlur stdDeviation="22"/></filter>

</defs>
<rect width="800" height="600" fill="url(#bg)"/><ellipse cx="400" cy="470" rx="160" ry="35" fill="#0b0d10" opacity=".15" filter="url(#soft)"/>
<g filter="url(#shadow)"><rect x="305" y="125" width="190" height="320" rx="40" fill="url(#black)"/><rect x="340" y="170" width="120" height="90" rx="22" fill="#22272e"/><path d="M338 150l62-65 62 65" fill="#171b20"/><path d="M330 285h140l-35 80h-70z" fill="#0b0d10"/><path d="M350 290h100l-25 55h-50z" fill="url(#light)"/><rect x="350" y="382" width="100" height="18" rx="9" fill="#333a43"/></g>
</svg>