<svg xmlns="http://www.w3.org/2000/svg" width="800" height="600" viewBox="0 0 800 600">
<defs>
<linearGradient id="bg" x1="0" y1="0" x2="1" y2="1"><stop stop-color="#f8f9fb"/><stop offset="1" stop-color="#e5e9ee"/></linearGradient>
<linearGradient id="black" x1="0" y1="0" x2="1" y2="1"><stop stop-color="#30353d"/><stop offset=".55" stop-color="#0e1116"/><stop offset="1" stop-color="#000"/></linearGradient>
<linearGradient id="metal" x1="0" y1="0" x2="1" y2="0"><stop stop-color="#767d87"/><stop offset=".25" stop-color="#1b1f25"/><stop offset=".55" stop-color="#5a626d"/><stop offset="1" stop-color="#11151a"/></linearGradient>
<radialGradient id="light" cx="50%" cy="50%" r="55%"><stop stop-color="#fffde9"/><stop offset=".45" stop-color="#ffe7a3"/><stop offset="1" stop-color="#d18b27"/></radialGradient>
<filter id="shadow" x="-50%" y="-50%" width="200%" height="200%"><feDropShadow dx="0" dy="18" stdDeviation="18" flood-color="#0b0d10" flood-opacity=".22"/></filter>
<filter id="soft" x="-50%" y="-50%" width="200%" height="200%"><feGaussianBlur stdDeviation="22"/></filter>

</defs>
<rect width="800" height="600" fill="url(#bg)"/><g filter="url(#shadow)" transform="translate(120 30) rotate(18 300 280)"><rect x="220" y="130" width="210" height="260" rx="55" fill="url(#black)"/><ellipse cx="325" cy="385" rx="160" ry="90" fill="#0b0d10"/><ellipse cx="325" cy="385" rx="105" ry="58" fill="url(#light)"/><path d="M205 340l-85-25 25 100 75 10" fill="#15191f"/><path d="M445 340l85-35-10 100-75 20" fill="#15191f"/></g>
</svg>